<svg xmlns="http://www.w3.org/2000/svg" width="16" height="16" viewBox="0 0 16 16">
  <rect width="16" height="16" fill="#1e40af" rx="2"/>
  <g transform="translate(2, 2)">
    <path d="M5 5v.1A1.5 1.5 0 0 1 4.45 8v0H2.5v0h0a1.5 1.5 0 0 1-.5-2.9V5a1.5 1.5 0 0 1 3 0Z" fill="white" stroke="white" stroke-width="0.75" stroke-linecap="round" stroke-linejoin="round"/>
    <path d="M3.5 8v3" fill="none" stroke="white" stroke-width="0.75" stroke-linecap="round" stroke-linejoin="round"/>
    <path d="M6.5 9.5v1.5" fill="none" stroke="white" stroke-width="0.75" stroke-linecap="round" stroke-linejoin="round"/>
    <path d="M6 9.5h4.15a.5.5 0 0 0 .35-.85L9 7h.15a.5.5 0 0 0 .35-.85L8 4.5h.1a.5.5 0 0 0 .4-.85L6.5 1.5l-.7.75" fill="white" stroke="white" stroke-width="0.75" stroke-linecap="round" stroke-linejoin="round"/>
  </g>
</svg>